<svg width="163" height="134" viewBox="0 0 163 134" fill="none" xmlns="http://www.w3.org/2000/svg">
<path d="M62.037 15.716L18.7773 43.2869V0H0V134H18.7773V82.7863L63.6554 134H99.2593L22.4233 62.9464L84.3704 24.8148L62.037 15.716Z" fill="black"/>
<path d="M83.6068 19.1074V92.9894H94.878L132.509 134H162.951L116.693 89.7138C122.511 87.3481 127.964 84.0726 132.509 79.5232C141.417 70.6064 146.144 58.96 146.144 46.4037C146.144 34.2114 141.417 22.201 132.509 13.6482C123.42 5.09531 112.148 0 99.6046 0H37.2222L83.6068 19.1074ZM83.6068 19.1074H99.6046C114.693 19.1074 127.237 31.1178 127.237 46.4037C127.237 61.5077 114.693 73.882 99.6046 73.882H83.6068V19.1074Z" fill="black"/>
<circle cx="100.086" cy="47.1482" r="17.3704" fill="#6F0000"/>
</svg>
